<svg width="104" height="91" fill="none" xmlns="http://www.w3.org/2000/svg"><path d="M52 23.75S58.102 2 77.424 2C92.474 2 102 14.47 102 29.242 102 49.673 82.156 63.202 52 89 21.844 63.202 2 49.673 2 29.242 2 14.47 11.525 2 26.576 2 45.898 2 52 23.75 52 23.75z" stroke="#186FD4" stroke-width="4" stroke-linecap="round" stroke-linejoin="round"/><path d="M46.727 50.899l.001-.001c1.45-1.61 3.415-2.514 5.465-2.514s4.016.904 5.465 2.514l.001.001M40 40c1.004 1.073 2.365 1.677 3.784 1.677 1.42 0 2.78-.603 3.784-1.676m9.25-.001c1.004 1.073 2.365 1.677 3.784 1.677 1.42 0 2.78-.603 3.784-1.676" stroke="#186FD4" stroke-width="4" stroke-linecap="round" stroke-linejoin="round"/></svg>