<svg width="23" height="23" fill="none" xmlns="http://www.w3.org/2000/svg"><path d="M11.5 6.834V22m0-15.166c-.422-1.74-1.149-3.226-2.085-4.267-.937-1.04-2.04-1.586-3.165-1.566a2.917 2.917 0 100 5.833m5.25 0c.422-1.74 1.149-3.226 2.085-4.267.937-1.04 2.04-1.586 3.165-1.566a2.917 2.917 0 010 5.833m2.917 4.666v8.167A2.333 2.333 0 0117.333 22H5.667a2.333 2.333 0 01-2.334-2.333V11.5M1 8a1.167 1.167 0 011.167-1.166h18.666A1.167 1.167 0 0122 8v2.334a1.167 1.167 0 01-1.167 1.166H2.167A1.167 1.167 0 011 10.334V8z" stroke="#16191E" stroke-width="1.6" stroke-miterlimit="10"/></svg>