<svg width="129" height="22" fill="none" xmlns="http://www.w3.org/2000/svg"><path d="M35.537 13.556c0 .63-.182 1.143-.545 1.537-.363.394-.888.646-1.576.757l2.075 2.46v.318h-2.268l-2.212-2.72h-1.169v2.72h-2.008v-7.757h4.776c.908 0 1.622.23 2.144.686.522.457.783 1.084.783 1.88v.119zm-2.042-.13c0-.49-.31-.733-.93-.733h-2.723v1.596h2.723c.302 0 .533-.063.692-.19.159-.126.238-.31.238-.555v-.118zm10.24-2.555v1.81H38.98v1.17h4.526v1.786H38.98v1.182h4.753v1.81h-6.76V10.87h6.76zm9.297 7.438v.32h-1.985l-.579-1.431h-3.47l-.58 1.43h-1.984v-.319l3.187-7.438h2.223l3.188 7.438zm-3.267-2.873l-1.032-2.566-1.032 2.566h2.064zm7.947-4.565c1.421 0 2.491.324 3.21.97.726.639 1.089 1.593 1.089 2.862v.106c0 2.546-1.433 3.82-4.3 3.82h-3.81V10.87h3.81zm0 5.89c.786 0 1.357-.155 1.712-.462.363-.307.545-.792.545-1.454v-.166c0-.654-.185-1.14-.556-1.454-.37-.324-.941-.485-1.713-.485h-1.792v4.02h1.803zm12.659-5.89v.32l-3.165 4.422v3.015h-2.008v-3.015l-3.176-4.422v-.32h2.133l2.053 2.933 2.042-2.933h2.12zm4.576 7.911c-.915 0-1.72-.162-2.416-.485-.689-.33-1.222-.796-1.6-1.395-.37-.6-.555-1.3-.555-2.105v-.083c0-.804.185-1.505.555-2.104.378-.607.911-1.072 1.6-1.396.696-.33 1.5-.496 2.416-.496.855 0 1.622.146 2.302.437.68.292 1.21.694 1.588 1.206.386.513.58 1.092.58 1.739v.094h-2.054V14.1c0-.434-.223-.78-.67-1.041-.438-.26-1.02-.39-1.746-.39-1.687 0-2.53.674-2.53 2.022v.142c0 .67.208 1.17.624 1.501.416.332 1.051.497 1.906.497.748 0 1.339-.126 1.77-.378.43-.253.646-.6.646-1.04v-.084h2.053v.083c0 .646-.193 1.226-.579 1.738-.378.513-.907.915-1.588 1.206-.68.284-1.447.426-2.302.426zm9.858 0c-.9 0-1.695-.162-2.383-.485-.68-.33-1.206-.796-1.576-1.395-.371-.607-.556-1.309-.556-2.105v-.083c0-.804.185-1.505.556-2.104a3.613 3.613 0 011.576-1.396c.688-.33 1.483-.496 2.383-.496.914 0 1.713.165 2.393.496.68.324 1.206.789 1.577 1.396.37.599.555 1.3.555 2.104v.083c0 .804-.185 1.506-.555 2.105-.371.6-.896 1.064-1.577 1.395-.68.323-1.478.485-2.393.485zm0-1.951c1.656 0 2.484-.666 2.484-1.998v-.142c0-.662-.212-1.163-.636-1.502-.416-.347-1.032-.52-1.848-.52-.802 0-1.415.173-1.838.52-.424.347-.635.848-.635 1.502v.142c0 .654.207 1.15.623 1.49.417.339 1.033.508 1.85.508zm9.595-5.96c1.422 0 2.492.324 3.21.97.726.639 1.09 1.593 1.09 2.862v.106c0 2.546-1.433 3.82-4.3 3.82h-3.81V10.87h3.81zm0 5.89c.787 0 1.358-.155 1.713-.462.364-.307.545-.792.545-1.454v-.166c0-.654-.185-1.14-.556-1.454-.37-.324-.941-.485-1.713-.485h-1.792v4.02H94.4zm12.322-5.89v1.81h-4.754v1.17h4.527v1.786h-4.527v1.182h4.754v1.81h-6.761V10.87h6.761zm2.525 7.911c-.332 0-.605-.106-.816-.32-.212-.22-.318-.5-.318-.839 0-.339.106-.61.318-.816.211-.212.484-.319.816-.319.34 0 .613.107.817.32.212.204.317.476.317.815 0 .347-.105.627-.317.84-.204.213-.477.32-.817.32zm10.402-5.226c0 .63-.182 1.143-.545 1.537-.362.394-.888.646-1.576.757l2.076 2.46v.318h-2.269l-2.212-2.72h-1.168v2.72h-2.008v-7.757h4.775c.908 0 1.623.23 2.144.686.522.457.783 1.084.783 1.88v.119zm-2.042-.13c0-.49-.31-.733-.93-.733h-2.722v1.596h2.722c.302 0 .533-.063.692-.19.159-.126.238-.31.238-.555v-.118zm7.165 5.356c-.763 0-1.433-.154-2.007-.461a3.255 3.255 0 01-1.328-1.336c-.31-.576-.465-1.242-.465-1.999v-4.115h2.008v4.15c0 .592.152 1.041.454 1.349.302.307.749.461 1.338.461.598 0 1.048-.154 1.351-.461.302-.308.453-.757.453-1.348v-4.15h2.008v4.114c0 .765-.159 1.435-.477 2.01a3.272 3.272 0 01-1.327 1.325c-.574.307-1.244.461-2.008.461zM30.928 1.564c.496 0 .889.124 1.177.373.289.245.433.576.433.994v.085c0 .418-.144.752-.433 1-.288.245-.68.367-1.176.367h-2.056v1.805h-.676V1.564h2.732zm-.013 2.192c.297 0 .527-.064.69-.19a.661.661 0 00.25-.55V2.93c0-.235-.084-.416-.25-.543-.163-.131-.393-.197-.69-.197h-2.042v1.565h2.042zm6.452 2.326v.106h-.69l-.527-1.17h-2.502l-.527 1.17h-.69v-.106l2.096-4.518h.744l2.096 4.518zM35.86 4.383l-.96-2.121-.96 2.121h1.92zm5.96-.543c.24.094.422.224.548.388a.91.91 0 01.19.571v.085c0 .441-.206.784-.616 1.029-.405.24-.985.36-1.737.36-.816 0-1.438-.16-1.867-.48-.423-.324-.635-.797-.635-1.417v-.063h.683v.063c0 .428.146.743.44.945.297.197.761.296 1.392.296.564 0 .98-.061 1.251-.184.27-.122.406-.312.406-.57v-.078a.466.466 0 00-.305-.458c-.202-.094-.547-.141-1.034-.141h-1.183v-.627h1.136c.45 0 .775-.05.973-.149a.498.498 0 00.305-.479v-.077c0-.48-.535-.72-1.603-.72-.595 0-1.037.104-1.325.31-.289.208-.433.52-.433.938v.057h-.676v-.057c0-.615.21-1.085.629-1.41.423-.328 1.03-.493 1.819-.493.72 0 1.28.118 1.676.353.397.235.596.564.596.986v.092c0 .418-.21.728-.63.93zm4.403-2.276c.495 0 .888.124 1.176.373.289.245.433.576.433.994v.085c0 .418-.144.752-.433 1-.288.245-.68.367-1.176.367h-2.056v1.805h-.676V1.564h2.732zm-.014 2.192c.298 0 .528-.064.69-.19a.66.66 0 00.25-.55V2.93c0-.235-.084-.416-.25-.543-.163-.131-.392-.197-.69-.197h-2.042v1.565h2.042zm6.452 2.326v.106h-.69l-.527-1.17h-2.502l-.527 1.17h-.69v-.106l2.096-4.518h.744l2.096 4.518zm-1.507-1.699l-.96-2.121-.96 2.121h1.92zm6.183-2.82v.628h-3.245v1.297h1.98c.51 0 .905.115 1.184.345.284.226.426.545.426.959v.092c0 .408-.142.728-.426.958-.284.23-.678.346-1.183.346h-2.658V1.564h3.922zM56.065 5.56c.289 0 .516-.06.683-.183a.576.576 0 00.257-.493v-.092a.57.57 0 00-.25-.493c-.167-.123-.397-.184-.69-.184h-1.974V5.56h1.974zm5.005.712c-.51 0-.956-.096-1.339-.289a2.09 2.09 0 01-.886-.817c-.207-.353-.31-.766-.31-1.241v-.092c0-.474.103-.888.31-1.24.208-.357.503-.632.886-.825.383-.192.83-.289 1.339-.289.51 0 .953.097 1.332.29.383.192.678.467.886.824.207.352.31.766.31 1.24v.092c0 .475-.103.888-.31 1.24a2.09 2.09 0 01-.886.818c-.379.193-.823.29-1.332.29zm0-.655c.581 0 1.034-.148 1.359-.444.324-.296.487-.708.487-1.234v-.113c0-.53-.163-.944-.487-1.24-.325-.3-.778-.451-1.36-.451-.58 0-1.036.15-1.365.45-.325.297-.487.71-.487 1.241v.113c0 .526.162.938.487 1.234.329.296.784.444 1.366.444zm2.844-3.426v-.627h4.51v.627h-1.92v3.997h-.67V2.19h-1.92zm9.605-.521l-2.097 2.163 2.029 2.249v.106h-.784l-1.84-2.023h-1.02v2.023h-.677V1.564h.676V3.53h1.008l1.893-1.966h.812v.106zm5.488 4.412v.106h-.69l-.527-1.17h-2.502l-.527 1.17h-.69v-.106l2.096-4.518h.744l2.096 4.518zM77.5 4.383l-.96-2.121-.96 2.121h1.92zm6.954 1.89c-.519 0-.972-.095-1.36-.283a2.127 2.127 0 01-.899-.817c-.207-.353-.311-.764-.311-1.234v-.12c0-.47.104-.88.311-1.233.212-.353.512-.625.9-.818.387-.192.84-.289 1.359-.289.468 0 .89.082 1.264.247.378.164.674.392.886.684.216.286.324.608.324.965v.064h-.683v-.064a.976.976 0 00-.23-.634 1.525 1.525 0 00-.642-.444 2.458 2.458 0 00-.92-.162c-.604 0-1.07.145-1.4.437-.324.291-.486.705-.486 1.24v.134c0 .536.162.95.487 1.24.329.287.795.43 1.4.43.346 0 .656-.051.926-.154.275-.108.487-.256.635-.444.154-.188.23-.4.23-.635v-.07h.683v.07c0 .357-.108.68-.325.966a2.121 2.121 0 01-.885.676 3.11 3.11 0 01-1.264.247zm7.715-.191v.106h-.69l-.528-1.17H88.45l-.528 1.17h-.69v-.106l2.097-4.518h.743l2.097 4.518zM90.66 4.383l-.96-2.121-.96 2.121h1.92zm2.938-2.82V5.23l2.942-3.665h.676v4.624h-.676V2.522l-2.942 3.666h-.675V1.564h.675zm1.475-.486c-.47 0-.826-.082-1.069-.246-.243-.165-.365-.404-.365-.72V.063h.595v.05c0 .127.072.225.217.296.144.066.351.099.622.099.261 0 .46-.033.594-.1.14-.07.21-.168.21-.295v-.05h.63v.05c0 .32-.123.561-.366.726-.239.16-.595.24-1.068.24zm2.849 1.114v-.627h4.51v.627h-1.921v3.997h-.669V2.19h-1.92zm9.13 3.89v.107h-.69l-.527-1.17h-2.502l-.527 1.17h-.69v-.106l2.096-4.518h.744l2.096 4.518zm-1.508-1.698l-.96-2.121-.96 2.121h1.92z" fill="#8C8E91"/><path fill-rule="evenodd" clip-rule="evenodd" d="M0 1.597c.01.064.02.139.027.205.014.12.047.333.073.473.026.14.057.413.07.607.011.193.036.428.055.521.018.094.049.307.069.474.02.167.046.363.06.436.037.202.088.66.105.958.009.147.035.354.058.46.024.107.055.304.069.437.014.134.045.341.07.461.024.12.05.344.058.497.008.154.034.41.059.57.024.16.06.417.08.57.02.154.05.361.069.461.018.1.046.346.06.546.015.2.049.495.074.655.026.16.061.405.078.546.03.256.072.499.09.529.005.009.021.202.036.429a6.6 6.6 0 00.07.63c.023.12.05.3.059.4.009.1.036.286.06.413.025.127.061.438.08.691.02.254.052.548.071.655.02.107.056.358.082.558.025.2.056.402.068.449.012.047.037.282.056.522.018.24.05.508.068.594.02.086.053.299.074.472.02.174.052.376.07.45.017.072.042.307.056.52.028.408.082.85.118.947a.235.235 0 00.076.095c.05.034.983.038 9.23.038 8.132 0 9.183-.004 9.23-.036.09-.062.107-.128.138-.557.017-.227.046-.495.065-.596.02-.1.053-.329.074-.509a5 5 0 01.047-.341c.02-.035.058-.36.091-.78.02-.25.043-.471.05-.492.01-.023-.007-.063-.038-.097l-.052-.059h-7.956c-5.367-.001-7.97-.01-8-.026-.051-.028-.058-.067-.093-.485a3.752 3.752 0 00-.058-.437 5.163 5.163 0 01-.07-.48 4.004 4.004 0 00-.057-.401c-.024-.067-.042-.236-.072-.658a4.096 4.096 0 00-.056-.473 3.712 3.712 0 01-.058-.385 6.513 6.513 0 00-.07-.485 8.462 8.462 0 01-.083-.72 7.584 7.584 0 00-.07-.642 8.847 8.847 0 01-.08-.522 9.4 9.4 0 00-.07-.473 5.567 5.567 0 01-.048-.473 5.792 5.792 0 00-.049-.473c-.012-.06-.047-.294-.078-.521a6.48 6.48 0 00-.08-.497 5.829 5.829 0 01-.062-.57c-.02-.267-.046-.546-.058-.619-.101-.61-.14-.954-.11-.973.016-.011 3.48-.018 7.697-.015l7.667.006.008.093c.004.05-.014.192-.04.315a4.005 4.005 0 00-.062.404c-.008.1-.035.286-.06.413a5.815 5.815 0 00-.067.57c-.013.186-.034.4-.048.473a23.31 23.31 0 00-.088.604c-.054.397-.07.475-.11.5-.035.024-1.25.034-5.58.044-3.931.01-5.544.022-5.562.04-.017.019-.027.533-.031 1.684-.005 1.366-.001 1.661.025 1.684.043.037 2.566.053 8.933.06 4.704.004 5.092.001 5.127-.036.028-.029.048-.127.07-.352.017-.17.042-.371.055-.445.013-.073.045-.302.072-.509.026-.207.057-.409.07-.449.01-.04.037-.29.057-.557.02-.266.052-.539.07-.606.018-.067.045-.237.06-.377.014-.14.035-.304.047-.364.048-.244.067-.392.09-.715.014-.187.04-.438.06-.558.019-.12.06-.404.092-.63l.08-.57a9.31 9.31 0 00.049-.534c.013-.207.039-.428.057-.49a4.04 4.04 0 00.07-.45c.022-.183.055-.394.073-.467.018-.074.044-.292.057-.485.012-.194.043-.483.067-.643.025-.16.062-.414.081-.564.02-.15.046-.317.057-.37.02-.088.016-.103-.03-.134-.046-.031-1.277-.036-9.77-.036H3.453l-.018-.023H0z" fill="#B7B8BA"/></svg>