<svg width="215" height="54" fill="none" xmlns="http://www.w3.org/2000/svg"><g clip-path="url(#clip0_1_13806)" fill-rule="evenodd" clip-rule="evenodd"><path d="M27.623 10.474c4.684 0 8.925 1.861 11.987 4.872l-6.237 6.06-5.136-5.138-12.048 10.88 3.684-.008.066 9.246 5.662.079v-3.789c0-.834.842-.655 2.631-.633h.027c1.79-.027 2.631-.201 2.631.633v3.789l5.553-.079 2.618 2.788a17.061 17.061 0 01-11.43 4.352c-9.337 0-16.907-7.398-16.907-16.526s7.561-16.526 16.899-16.526zm-7.785 11.278l2.995-2.464.035-1.333h-3.035v3.797h.005z" fill="#2B2C86"/><path d="M27.623 0c7.653 0 14.579 3.041 19.583 7.957l-3.715 3.614c-4.052-3.985-9.666-6.45-15.868-6.45C15.259 5.121 5.237 14.918 5.237 27s10.022 21.879 22.386 21.879c5.838 0 11.149-2.185 15.136-5.76l3.544 3.772C41.386 51.304 34.829 54 27.627 54 12.368 54 0 41.914 0 27S12.368 0 27.623 0zm29.588 30.552c-2.346 0-4.342-.803-5.991-2.416-1.65-1.612-2.474-3.587-2.474-5.93 0-2.342.825-4.321 2.474-5.95 1.649-1.627 3.645-2.444 5.991-2.444.443 0 .855.022 1.237.07a5.95 5.95 0 011.14.258l.307-.441 2.64 1.512-1.784 3.395c-1.158-1.04-2.338-1.556-3.544-1.556-1.334 0-2.456.498-3.378 1.486-.92.992-1.377 2.215-1.377 3.675s.46 2.635 1.377 3.627c.922.992 2.044 1.485 3.378 1.485 1.412 0 2.552-.493 3.425-1.485l1.404 3.277c-1.395.961-3.005 1.442-4.83 1.442l.005-.005zm8.965-.44V17.513h-3.28l1.118-3.23h6.35l.404-.72h3.21l-1.451 3.95H69.67V30.11h-3.495zm9.083 0h3.496v-4.79h2.022c1.425 0 2.631-.564 3.614-1.695.982-1.132 1.474-2.504 1.474-4.117 0-1.442-.514-2.674-1.544-3.696-1.031-1.023-2.237-1.534-3.614-1.534h-5.781l-1.189 3.23h1.522v12.6zm3.496-12.598h1.07c.667 0 1.22.222 1.667.672.443.45.666 1.001.666 1.652s-.228 1.171-.688 1.604a2.344 2.344 0 01-1.667.65h-1.048v-4.578zm16.649 13.038c-2.346 0-4.342-.803-5.991-2.416-1.65-1.612-2.474-3.587-2.474-5.93 0-2.342.825-4.286 2.474-5.93 1.649-1.642 3.645-2.464 5.991-2.464 2.347 0 4.342.813 5.991 2.443 1.649 1.63 2.474 3.61 2.474 5.951 0 2.343-.825 4.278-2.474 5.904-1.649 1.625-3.644 2.442-5.991 2.442zm0-13.506c-1.316 0-2.439.498-3.364 1.499-.925 1-1.39 2.22-1.39 3.661 0 1.442.46 2.635 1.381 3.627s2.044 1.486 3.377 1.486c1.334 0 2.457-.494 3.378-1.486.92-.992 1.381-2.202 1.381-3.627 0-1.424-.465-2.66-1.39-3.661-.926-1-2.049-1.499-3.364-1.499h-.009zm18.741-2.766h3.496v15.831h-3.496v-8.647l-4.662 8.647h-3.496V17.513h-1.522l1.189-3.229h3.829v8.858l4.662-8.858v-.004zm-6.324-2.718l1.285-1.302a3.17 3.17 0 001.201.874c.47.192.948.288 1.439.288 1.061 0 1.934-.389 2.614-1.162l1.377 1.35-.096.162c-1.092 1.162-2.395 1.743-3.899 1.743-.777 0-1.5-.157-2.163-.476-.666-.319-1.254-.808-1.758-1.477zm20.311 18.99c-2.346 0-4.342-.803-5.991-2.416-1.649-1.612-2.474-3.587-2.474-5.93 0-2.342.825-4.286 2.474-5.93 1.649-1.642 3.645-2.464 5.991-2.464 2.347 0 4.342.813 5.991 2.443 1.649 1.626 2.474 3.61 2.474 5.951 0 2.343-.825 4.278-2.474 5.904-1.649 1.625-3.644 2.442-5.991 2.442zm0-13.506c-1.316 0-2.439.498-3.364 1.499-.925 1-1.39 2.22-1.39 3.661 0 1.442.46 2.635 1.381 3.627s2.044 1.486 3.377 1.486c1.334 0 2.457-.494 3.378-1.486.921-.992 1.377-2.202 1.377-3.627 0-1.424-.465-2.66-1.391-3.661-.925-1-2.048-1.499-3.364-1.499h-.004zm10.25-2.766h11.605v15.831h-3.495V17.513h-4.281v12.598h-3.496V17.513h-1.522l1.189-3.229v-.004zm16.316 15.831V17.513h-3.281l1.119-3.229h6.35l.404-.72h3.21l-1.451 3.95h-2.856V30.11h-3.495zm10.846 0h3.496V17.513h2.855l1.452-3.95h-3.211l-.403.721h-6.351l-1.118 3.23h3.28V30.11zm16.623.441c-2.346 0-4.342-.803-5.991-2.416-1.649-1.612-2.474-3.587-2.474-5.93 0-2.342.825-4.286 2.474-5.93 1.649-1.642 3.645-2.464 5.991-2.464 2.347 0 4.342.813 5.991 2.443 1.649 1.63 2.474 3.61 2.474 5.951 0 2.343-.825 4.278-2.474 5.904-1.649 1.625-3.644 2.442-5.991 2.442zm0-13.506c-1.316 0-2.438.498-3.364 1.499-.925 1-1.39 2.22-1.39 3.661 0 1.442.46 2.635 1.377 3.627.921.992 2.044 1.486 3.377 1.486 1.333 0 2.456-.494 3.377-1.486.921-.992 1.378-2.202 1.378-3.627 0-1.424-.465-2.66-1.391-3.661-.925-1-2.048-1.499-3.364-1.499zm10.583 13.065V17.513h-1.521l1.188-3.229h5.781c1.377 0 2.583.512 3.614 1.534 1.031 1.023 1.544 2.255 1.544 3.697 0 1.612-.491 2.984-1.474 4.116-.982 1.132-2.189 1.695-3.614 1.695h-2.022v4.79h-3.496v-.005zm3.496-12.598v4.58h1.048c.649 0 1.206-.219 1.667-.651.461-.433.689-.97.689-1.604 0-.633-.224-1.201-.667-1.652-.443-.45-1-.672-1.667-.672h-1.07zm9.11 12.598V17.513h-1.522l1.188-3.229h6.373l.43-.72h3.189l-1.452 3.95h-4.711V30.11h-3.495z" fill="#E52B0E"/><path d="M57.843 37.923v5.087h2.683c.982 0 1.665-.601 1.665-1.501 0-.66-.393-1.091-.99-1.234.443-.17.755-.58.755-1.074 0-.757-.57-1.278-1.71-1.278h-2.403zm.9.721h1.285c.525 0 1.005.063 1.005.7 0 .512-.349.7-1.036.7h-1.258v-1.4h.004zm0 2.045h1.367c.597 0 1.154.098 1.154.802 0 .65-.516.793-1.14.793h-1.385V40.69h.004zm8.824.388h-.923c-.095.748-.489 1.3-1.344 1.3-1.122 0-1.552-.962-1.552-1.906s.453-1.902 1.561-1.902c.679 0 1.177.365 1.303.98h.919c-.177-1.18-1.154-1.737-2.204-1.737-1.597 0-2.507 1.216-2.507 2.659 0 1.608.978 2.664 2.462 2.664 1.317 0 2.195-.82 2.294-2.058h-.009zm4.616-3.15H68.39v5.088h3.837v-.766h-2.923v-1.502h2.67v-.721h-2.67v-1.35h2.878v-.749zm-.76-1.207h-.82v.77h.82v-.77zm-1.471 0h-.828v.77h.828v-.77zm9.865 7.56v-2.036h-.593v-4.317h-3.43v.784c0 1.4-.29 2.843-.688 3.529h-.511v2.035h.896V43.01h3.43v1.266h.896v.004zM78.3 42.244h-2.204c.326-.637.597-1.973.597-3.234v-.308H78.3v3.542zm6.272.77v-5.087h-3.44l-.104 2.95c-.045 1.291-.334 1.505-.71 1.505a1.17 1.17 0 01-.362-.058v.686c.131.045.348.094.556.094.756 0 1.353-.566 1.412-1.987l.095-2.423h1.63v4.316h.922v.005zm5.059 0v-5.087h-2.399c-1.122 0-1.746.566-1.746 1.408 0 .642.208 1.216 1.14 1.492l-1.62 2.188h1.154l1.493-2.099h1.05v2.099h.928zm-.924-2.78H87.32c-.593 0-.9-.284-.9-.819 0-.534.29-.757.918-.757h1.376v1.577h-.005zm8.59.843h-.924c-.095.748-.489 1.3-1.344 1.3-1.122 0-1.552-.962-1.552-1.906s.452-1.902 1.561-1.902c.679 0 1.177.365 1.303.98h.919c-.177-1.18-1.154-1.737-2.204-1.737-1.597 0-2.507 1.216-2.507 2.659 0 1.608.978 2.664 2.462 2.664 1.317 0 2.195-.82 2.294-2.058h-.009zm4.474-3.15h-4.28v.771h1.678v4.317h.924v-4.317h1.678v-.77zm.62 0v5.088h.923v-1.956h1.489c1.064 0 1.711-.615 1.711-1.577 0-1.065-.747-1.55-1.833-1.55h-2.285l-.005-.005zm.923.744h1.204c.584 0 1.086.174 1.086.829 0 .601-.407.837-1.004.837h-1.286v-1.666zm6.263-.864c-1.611 0-2.543 1.172-2.543 2.664 0 1.586 1.023 2.664 2.53 2.664 1.506 0 2.529-1.078 2.529-2.664s-1.027-2.664-2.516-2.664zm-.013.748c.977 0 1.597.744 1.597 1.907s-.62 1.92-1.584 1.92c-.964 0-1.611-.744-1.611-1.929s.629-1.902 1.598-1.902v.004zm3.348 4.46h1.073l2.262-3.903v3.903h.923v-5.088h-1.072l-2.263 3.903v-3.903h-.923v5.088zm9.136-5.088h-4.28v.771h1.678v4.317h.924v-4.317h1.678v-.77zm4.394 0h-3.792v5.088h3.837v-.766h-2.923v-1.502h2.67v-.721h-2.67v-1.35h2.878v-.749zm4.991 5.088v-5.088h-3.439l-.104 2.95c-.045 1.291-.335 1.505-.71 1.505a1.15 1.15 0 01-.362-.058v.686c.131.045.348.094.556.094.756 0 1.353-.566 1.412-1.987l.095-2.423h1.629v4.316h.923v.005zm5.222-1.577c0-1.003-.642-1.564-1.796-1.564h-1.407v-1.942h-.924v5.087h2.331c1.145 0 1.796-.57 1.796-1.577v-.004zm-.923.022c0 .548-.303.829-.909.829h-1.367v-1.684h1.353c.579 0 .923.32.923.855zm6.236-.379h-.923c-.095.749-.489 1.301-1.344 1.301-1.122 0-1.552-.962-1.552-1.907 0-.944.452-1.902 1.561-1.902.679 0 1.176.365 1.303.98h.919c-.177-1.18-1.154-1.737-2.204-1.737-1.597 0-2.507 1.216-2.507 2.66 0 1.608.977 2.663 2.462 2.663 1.316 0 2.194-.82 2.294-2.058h-.009zm4.475-3.15h-4.281v.771h1.679v4.317h.923v-4.317h1.679v-.77zm.597 0v5.088h2.684c.982 0 1.665-.601 1.665-1.501 0-.66-.394-1.092-.991-1.234.444-.17.756-.58.756-1.074 0-.757-.57-1.278-1.711-1.278h-2.403zm.901.722h1.285c.525 0 1.005.063 1.005.7 0 .512-.349.7-1.037.7h-1.258v-1.4h.005zm0 2.045h1.367c.597 0 1.153.098 1.153.802 0 .65-.515.793-1.14.793h-1.385v-1.595h.005zm6.715-2.766h-.982l-2.032 5.087h.955l.516-1.35h2.086l.502 1.35h.991l-2.031-5.087h-.005zm.294 3.065h-1.606l.819-2.139.783 2.139h.004zm4.277 2.022h1.072l2.263-3.902v3.902h.923v-5.087h-1.073l-2.262 3.902v-3.902h-.923v5.087zm7.425-5.087v5.087h.923v-1.956h1.489c1.063 0 1.711-.614 1.711-1.577 0-1.064-.747-1.55-1.833-1.55h-2.285l-.005-.004zm.923.744h1.204c.584 0 1.086.173 1.086.828 0 .602-.407.838-1.005.838h-1.285v-1.666zm7.779-.744h-3.792v5.087h3.837v-.766h-2.923v-1.501h2.67v-.722h-2.67v-1.35h2.878v-.748zm6.344 0h-1.285l-1.421 3.978-1.471-3.978h-1.294v5.087h.874V39.1l1.502 3.92h.756l1.466-3.92v3.92h.882v-5.087h-.009zm3.371-.12c-1.611 0-2.543 1.171-2.543 2.663 0 1.586 1.023 2.664 2.53 2.664s2.529-1.078 2.529-2.664-1.027-2.663-2.516-2.663zm-.013.748c.977 0 1.597.744 1.597 1.907 0 1.162-.62 1.92-1.584 1.92-.963 0-1.611-.744-1.611-1.93 0-1.184.629-1.902 1.598-1.902v.005zm7.611-.628h-.923v2.022h-2.412v-2.022h-.923v5.087h.923v-2.285h2.412v2.285h.923v-5.087zm4.874 0h-4.281v.77h1.679v4.317h.923v-4.317h1.679v-.77zm2.33 0l2.032 5.087h-.991l-.503-1.35h-2.086l-.516 1.35h-.954l2.031-5.087h.987zm.294 3.065l-.783-2.139-.819 2.139h1.607-.005z" fill="#2B2C86"/></g><defs><clipPath id="clip0_1_13806"><path fill="#fff" d="M0 0h215v54H0z"/></clipPath></defs></svg>