<svg width="22" height="25" fill="none" xmlns="http://www.w3.org/2000/svg"><path d="M7.688 10.357c0 .732.296 1.434.823 1.951a2.84 2.84 0 001.989.808 2.84 2.84 0 001.989-.808c.527-.517.823-1.22.823-1.95 0-.733-.296-1.434-.823-1.952a2.84 2.84 0 00-1.989-.808 2.84 2.84 0 00-1.989.808 2.733 2.733 0 00-.823 1.951z" stroke="#C4C7CC" stroke-width="1.4" stroke-linecap="round" stroke-linejoin="round"/><path d="M15.803 15.56l-3.977 3.902A1.893 1.893 0 0110.5 20c-.497 0-.974-.194-1.326-.538L5.197 15.56a7.315 7.315 0 01-2.053-3.767 7.228 7.228 0 01.427-4.251A7.39 7.39 0 016.333 4.24 7.604 7.604 0 0110.5 3c1.483 0 2.933.431 4.167 1.24a7.39 7.39 0 012.762 3.302 7.228 7.228 0 01.427 4.25 7.314 7.314 0 01-2.053 3.768z" stroke="#C4C7CC" stroke-width="1.4" stroke-linecap="round" stroke-linejoin="round"/></svg>