<svg width="731" height="7" fill="none" xmlns="http://www.w3.org/2000/svg"><path d="M-34-94h15L-159 73h-15L-34-94zm30 0h15L-129 73h-15L-4-94zm30 0h15L-99 73h-15L26-94zm30 0h15L-69 73h-15L56-94zm30 0h15L-39 73h-15L86-94zm30 0h15L-9 73h-15L116-94zm30 0h15L21 73H6L146-94zm30 0h15L51 73H36L176-94zm30 0h15L81 73H66L206-94zm30 0h15L111 73H96L236-94zm30 0h15L141 73h-15L266-94zm30 0h15L171 73h-15L296-94zm30 0h15L201 73h-15L326-94zm30 0h15L231 73h-15L356-94zm30 0h15L261 73h-15L386-94zm30 0h15L291 73h-15L416-94zm30 0h15L321 73h-15L446-94zm30 0h15L351 73h-15L476-94zm30 0h15L381 73h-15L506-94zm30 0h15L411 73h-15L536-94zm30 0h15L441 73h-15L566-94zm30 0h15L471 73h-15L596-94zm30 0h15L501 73h-15L626-94zm30 0h15L531 73h-15L656-94zm30 0h15L561 73h-15L686-94zm30 0h15L591 73h-15L716-94z" fill="#fff" fill-opacity=".12"/></svg>