<svg width="40" height="48" fill="none" xmlns="http://www.w3.org/2000/svg"><path d="M24.75 39.395H39m-7.125-7.106V46.5M1 44.132v-4.737c0-2.513 1-4.923 2.782-6.7a9.514 9.514 0 016.718-2.774H20M5.75 10.974c0 2.512 1 4.922 2.782 6.699a9.513 9.513 0 006.718 2.774c2.52 0 4.936-.998 6.718-2.774a9.46 9.46 0 002.782-6.7c0-2.512-1-4.922-2.782-6.698A9.513 9.513 0 0015.25 1.5c-2.52 0-4.936.998-6.718 2.775a9.46 9.46 0 00-2.782 6.699z" stroke="#E52B0E" stroke-width="2" stroke-linecap="round" stroke-linejoin="round"/></svg>